<svg width="36" height="38" viewBox="0 0 36 38" fill="none" xmlns="http://www.w3.org/2000/svg">
<g clip-path="url(#clip0)">
<path d="M20.6 9.8C19.5 10.4 18.9 11.4 18.8 12.7C21.8 12.7 24.7 12.7 27.7 12.7C27.5 11.9 27.1 11.3 26.5 10.7C25 9.2 22.5 8.8 20.6 9.8Z" fill="white"/>
<path d="M30 30.8C29.1 30.8 28.3 30.9 27.4 30.8C24.7 30.5 22.6 28.1 22.8 25.2C23 22.6 25.3 20.5 28 20.5C30 20.5 32.1 20.5 34.1 20.5C34.3 20.5 34.4 20.5 34.6 20.5C34.6 19.5 34.6 18.6 34.6 17.7C34.5 15.9 33.1 14.4 31.4 14.2C30.5 14.1 29.5 14.1 28.6 14.1C20.8 14.1 12.9 14.1 5.1 14.1C4.8 14.1 4.5 14.1 4.3 14C4.1 13.9 3.9 13.7 3.9 13.5C3.9 13.3 4.1 13.1 4.2 13C4.4 12.9 4.7 12.9 4.9 12.8C5.4 12.8 5.9 12.8 6.4 12.8C6.4 11.9 6.4 11.1 6.4 10.3C5.6 10.3 4.7 10.3 3.9 10.3C1.7 10.3 0 12 0 14.2C0 20.6 0 27 0 33.4C0 35.6 1.7 37.3 3.9 37.3C12.8 37.3 21.8 37.3 30.7 37.3C32.6 37.3 34.3 36 34.5 34.1C34.6 33.1 34.5 32 34.5 30.9C33 30.8 31.5 30.8 30 30.8Z" fill="white"/>
<path d="M13.8 12.8C14.8 12.8 15.7 12.8 16.6 12.8C17.5 10.6 18.4 8.50001 19.3 6.40001C21.7 7.10001 23.4 6.40001 24.6 4.30001C25.8 4.80001 27 5.30001 28.2 5.80001C27.5 8.20001 28.2 9.90001 30.3 11.1C30.1 11.7 29.8 12.3 29.6 12.9C30.4 12.9 31.2 12.9 32 12.9C32.3 12.9 32.4 12.8 32.5 12.6C33.1 11.2 33.7 9.90001 34.3 8.50001C35 7.00001 34.4 5.50001 33 4.90001C29.4 3.40001 25.7 1.80001 22.1 0.300006C20.6 -0.299994 19.1 0.300006 18.5 1.80001C17.2 5.00001 15.8 8.10001 14.5 11.3C14.2 11.7 14 12.2 13.8 12.8Z" fill="white"/>
<path d="M35.9 23.2C35.9 22.3 35.4 21.8 34.5 21.8C32.5 21.8 30.5 21.8 28.5 21.8C28.2 21.8 28 21.8 27.7 21.9C25.9 22.2 24.5 23.8 24.5 25.6C24.5 27.5 25.8 29.2 27.6 29.4C28.8 29.5 30.1 29.4 31.3 29.4C31.3 29.4 31.3 29.4 31.3 29.5C32.4 29.5 33.4 29.5 34.5 29.5C35.3 29.5 35.8 29 35.9 28.1C35.9 26.5 35.9 24.8 35.9 23.2ZM29.5 27.1C28.7 27.1 28 26.4 28 25.6C28 24.8 28.7 24.1 29.5 24.1C30.3 24.1 31 24.8 31 25.6C31 26.5 30.3 27.2 29.5 27.1Z" fill="white"/>
<path d="M10.8 12.8C11.1 12.8 11.4 12.8 11.7 12.8C12 12.8 12.2 12.7 12.3 12.4C13.4 9.90001 14.4 7.30001 15.5 4.80001C16 3.70001 16.4 2.60001 16.9 1.50001C15.3 0.900009 13.8 1.70001 13.3 3.40001C12.6 6.00001 11.9 8.60001 11.2 11.2C11.1 11.8 10.9 12.3 10.8 12.8Z" fill="white"/>
<path d="M8.69999 12.8C8.99999 12.8 9.09999 12.7 9.09999 12.5C9.99999 9.20001 10.8 6.00001 11.7 2.70001C10.4 2.50001 9.09999 3.50001 8.89999 5.00001C8.69999 6.70001 8.39999 8.50001 8.19999 10.2C8.09999 11 7.99999 11.9 7.89999 12.8C8.19999 12.8 8.39999 12.8 8.69999 12.8Z" fill="white"/>
</g>
<defs>
<clipPath id="clip0">
<rect width="35.9" height="37.2" fill="white"/>
</clipPath>
</defs>
</svg>
