<svg width="26" height="46" viewBox="0 0 26 46" fill="none" xmlns="http://www.w3.org/2000/svg">
<g clip-path="url(#clip0)">
<path d="M10.9 32.4C8.5 32.4 6.2 32.4 3.9 32.4C5.9 28.3 8 24.3 10 20.3C6.6 20.3 3.3 20.3 0 20.3C0 20.2 0 20.1 0.1 20.1C1.2 17.9 2.3 15.7 3.4 13.5C4.1 12 4.9 10.5 5.6 9C6.6 7 7.6 5 8.6 3C9.1 2.1 9.6 1.1 10 0.2C10.1 0 10.2 0 10.4 0C13 0 15.7 0 18.3 0C20.5 0 22.8 0 25 0C25.1 0 25.2 0 25.4 0C22.6 5 19.8 9.9 17 14.9C19.8 14.9 22.6 14.9 25.5 14.9C22.5 19.4 19.6 23.9 16.7 28.4C19.6 28.4 22.4 28.4 25.3 28.4V28.5C18.6 34.3 11.9 40.1 5.1 45.9C5.1 45.9 5.1 45.9 5 45.9C7 41.4 8.9 36.9 10.9 32.4Z" fill="white"/>
</g>
<defs>
<clipPath id="clip0">
<rect width="25.5" height="45.9" fill="white"/>
</clipPath>
</defs>
</svg>
