<svg width="108" height="538" viewBox="0 0 108 538" fill="none" xmlns="http://www.w3.org/2000/svg">
<g clip-path="url(#clip0)">
<path d="M105.9 451.7V474H44.7C41.4 474 39.8 475.5 39.8 478.4C39.8 481.4 41.4 482.9 44.7 482.9H105.9V506H44.7C41.4 506 39.8 507.5 39.8 510.4C39.8 513.7 41.9 515.3 46.1 515.3H105.9V537.3H21.7V515.3H33.3C24.9 512.5 20.7 507 20.7 498.9C20.7 489.9 24.9 484.7 33.4 483.5C24.9 481.6 20.7 476.1 20.7 467.1C20.7 461.3 22.1 457.3 25 455.1C27.9 452.9 32.3 451.8 38.2 451.8H105.9V451.7Z" stroke="#BCBCBC" stroke-width="1.4173" stroke-miterlimit="10"/>
<path d="M95.4 408.3C103.1 411.8 107 417.1 107 424.3C107 430.5 105.7 434.9 103 437.4C100.3 440 95.9 441.2 89.7 441.2H79C72.7 441.2 68.3 440.2 65.7 438.3C63.1 436.3 59.9 430.9 56.1 422C52.5 413.8 49.3 409.4 46.5 408.7C45.5 408.4 44 408.3 42 408.3C38.1 408.3 36.1 410 36.1 413.3C36.1 416 37.7 417.6 40.8 418.1C41.1 418.2 43.7 418.2 48.7 418.2V441.2H43.6C34.6 441.2 28.4 438.7 25 433.6C22.3 429.5 20.9 422.7 20.9 413.2C20.9 403.5 22.3 396.6 25.1 392.4C28.6 387.3 34.9 384.8 44.1 384.8H105.8V408.3H95.4V408.3ZM63.3 408.3C66.4 412.8 68.1 415.1 68.5 415.4C70.3 417.2 72.9 418.1 76.1 418.1H84C87.1 418.1 88.6 416.6 88.6 413.7C88.6 410.1 85.6 408.2 79.4 408.2H63.3V408.3Z" stroke="#BCBCBC" stroke-width="1.4173" stroke-miterlimit="10"/>
<path d="M21.7 318.4L62.1 332.2L105.8 317.4V341.7L69.5 349.8L105.8 358.1V378.9L62 364.7L21.7 378V354L55 346.9L21.7 339.4V318.4V318.4Z" stroke="#BCBCBC" stroke-width="1.4173" stroke-miterlimit="10"/>
<path d="M44.3 213.2H83.5C92.8 213.2 99.2 215.7 102.6 220.7C105.3 224.7 106.7 231.6 106.7 241.5C106.7 251.4 105.3 258.3 102.6 262.3C99.1 267.3 92.8 269.8 83.5 269.8H44.3C34.9 269.8 28.5 267.3 25 262.3C22.3 258.3 20.9 251.4 20.9 241.5C20.9 231.6 22.3 224.7 25 220.7C28.5 215.8 34.9 213.2 44.3 213.2ZM86.1 236.3H41.3C37.8 236.3 36.1 238.1 36.1 241.6C36.1 245.2 37.8 247 41.3 247H86.1C89.8 247 91.6 245.2 91.6 241.6C91.5 238.1 89.7 236.3 86.1 236.3Z" stroke="#BCBCBC" stroke-width="1.4173" stroke-miterlimit="10"/>
<path d="M105.9 179.6V203H21.7V180.2H33.3C28.7 178.1 25.5 175.8 23.6 173.4C21.7 170.9 20.7 167.3 20.7 162.5H44.2V166.6C44.2 175.3 48.8 179.7 58.1 179.7H105.9V179.6Z" stroke="#BCBCBC" stroke-width="1.4173" stroke-miterlimit="10"/>
<path d="M0.700012 154.8V131.4H105.9V154.8H0.700012Z" stroke="#BCBCBC" stroke-width="1.4173" stroke-miterlimit="10"/>
<path d="M44.3 64.5H83.5C92.8 64.5 99.2 67 102.6 72C105.3 76 106.7 82.9 106.7 92.8C106.7 102.7 105.3 109.6 102.6 113.6C99.1 118.6 92.8 121.1 83.5 121.1H44.3C34.9 121.1 28.5 118.6 25 113.6C22.3 109.6 20.9 102.7 20.9 92.8C20.9 82.9 22.3 76 25 72C28.5 67 34.9 64.5 44.3 64.5ZM86.1 87.6H41.3C37.8 87.6 36.1 89.4 36.1 92.9C36.1 96.5 37.8 98.3 41.3 98.3H86.1C89.8 98.3 91.6 96.5 91.6 92.9C91.5 89.3 89.7 87.6 86.1 87.6Z" stroke="#BCBCBC" stroke-width="1.4173" stroke-miterlimit="10"/>
<path d="M21.7 0.799988L105.8 15.8V44L21.7 60.1V36.8L88.2 28.7L21.7 20.8V0.799988V0.799988Z" stroke="#BCBCBC" stroke-width="1.4173" stroke-miterlimit="10"/>
</g>
<defs>
<clipPath id="clip0">
<rect width="107.7" height="538" fill="white"/>
</clipPath>
</defs>
</svg>
