<svg width="28" height="45" viewBox="0 0 28 45" fill="none" xmlns="http://www.w3.org/2000/svg">
<g clip-path="url(#clip0)">
<path d="M5.29999 20.4C6.09999 20.4 6.79999 20.4 7.49999 20.4C8.99999 20.4 10.4 20.4 11.9 20.4C12.5 20.4 13 20.2 13.4 19.7C13.8 19.2 13.8 18.7 13.6 18.2C13.3 17.6 12.7 17.3 12 17.3C10.4 17.3 8.89999 17.3 7.29999 17.3C6.69999 17.3 5.99999 17.3 5.39999 17.3C5.39999 16.6 5.39999 15.9 5.39999 15.1C6.09999 15.1 6.79999 15.1 7.49999 15.1C8.99999 15.1 10.5 15.1 12 15.1C12.9 15.1 13.6 14.6 13.7 13.8C13.9 12.8 13.1 11.9 12 11.9C9.99999 11.9 8.09999 11.9 6.09999 11.9C5.89999 11.9 5.59999 11.9 5.29999 11.9C5.29999 11.2 5.29999 10.5 5.29999 9.7C5.59999 9.7 5.89999 9.7 6.19999 9.7C8.09999 9.7 9.99999 9.7 11.8 9.7C12.4 9.7 13 9.5 13.3 8.9C13.6 8.4 13.7 7.9 13.4 7.4C13.1 6.8 12.5 6.5 11.9 6.5C10.3 6.5 8.59999 6.5 6.99999 6.5C6.49999 6.5 5.99999 6.5 5.39999 6.5C5.59999 5.7 5.89999 5 6.19999 4.3C7.99999 1.1 11.5 -0.600002 15.1 -2.27988e-06C18.6 0.599998 21.4 3.6 21.9 7.2C22 8.4 22 9.6 22 10.7C22 14.9 22.1 19 22.1 23.2C22.1 26.9 20 30.1 16.6 31.3C11.7 33.2 6.19999 30 5.39999 24.8C5.29999 23.9 5.29999 23 5.29999 22.2C5.29999 21.6 5.29999 21 5.29999 20.4Z" fill="white"/>
<path d="M4.99999 45C4.89999 44 5.59999 42.8 6.59999 42.4C6.99999 42.2 7.49999 42.2 7.89999 42.1C8.99999 42.1 10.2 42.1 11.3 42.1C11.4 42.1 11.5 42.1 11.7 42.1C11.7 40.2 11.7 38.3 11.7 36.5C11.1 36.4 10.5 36.3 9.89999 36.2C6.69999 35.5 3.99999 34 1.89999 31.3C0.599994 29.6 -0.100006 27.7 -0.100006 25.5C-0.100006 24.2 -0.100006 22.9 -0.100006 21.6C-0.100006 20.3 0.799994 19.6 2.09999 19.9C2.89999 20.1 3.29999 20.6 3.29999 21.4C3.29999 22.6 3.29999 23.9 3.29999 25.1C3.29999 27.5 4.19999 29.4 5.89999 30.9C7.59999 32.5 9.69999 33.3 12 33.6C15 33.9 17.7 33.4 20.2 31.7C21.9 30.5 23.1 29 23.6 26.9C23.7 26.4 23.8 25.9 23.8 25.4C23.8 24 23.8 22.7 23.8 21.3C23.8 20.6 24.1 20.1 24.8 19.9C25.5 19.7 26.1 19.7 26.7 20.1C27.1 20.3 27.3 20.7 27.3 21.2C27.3 22.7 27.3 24.2 27.3 25.7C27.2 28.3 26.2 30.5 24.3 32.4C22 34.7 19.1 35.9 15.9 36.4C15.8 36.4 15.7 36.4 15.6 36.4C15.6 38.3 15.6 40.1 15.6 42C15.7 42 15.8 42 16 42C17.2 42 18.4 42 19.5 42C21 42 22.2 43.1 22.4 44.5C22.4 44.6 22.4 44.7 22.4 44.8C16.5 45 10.8 45 4.99999 45Z" fill="white"/>
</g>
<defs>
<clipPath id="clip0">
<rect width="27.3" height="45" fill="white"/>
</clipPath>
</defs>
</svg>
